<?xml version="1.0" encoding="iso-8859-1"?>
<svg version="1.1" id="Capa_1" xmlns="http://www.w3.org/2000/svg" xmlns:xlink="http://www.w3.org/1999/xlink" x="0px" y="0px"
	 viewBox="0 0 265.404 265.404" style="enable-background:new 0 0 265.404 265.404;" xml:space="preserve">
<g>
	<path style="fill:#000002;" d="M132.702,0C59.53,0,0,59.53,0,132.702c0,73.172,59.529,132.702,132.701,132.702
		c73.172,0,132.702-59.53,132.702-132.702C265.404,59.53,205.874,0,132.702,0z M132.702,250.404
		C67.801,250.404,15,197.604,15,132.702C15,67.801,67.801,15,132.702,15c64.901,0,117.702,52.801,117.702,117.702
		C250.404,197.604,197.603,250.404,132.702,250.404z"/>
	<path style="fill:#000002;" d="M185.691,71.261c-1.224,0-2.469,0.248-3.703,0.736l-72.993,28.893
		c-3.474,1.375-6.731,4.633-8.106,8.106l-28.893,72.992c-1.184,2.994-0.921,6.097,0.721,8.514c1.55,2.28,4.165,3.642,6.995,3.642
		c1.224,0,2.47-0.247,3.703-0.736l72.985-28.89c3.476-1.371,6.737-4.631,8.114-8.108l28.893-72.994
		c1.184-2.993,0.921-6.096-0.722-8.513C191.136,72.622,188.521,71.261,185.691,71.261z M150.685,150.592
		c-0.028,0.031-0.061,0.064-0.092,0.092l-59.376,23.504l23.502-59.373c0.03-0.032,0.063-0.065,0.095-0.095l59.374-23.502
		L150.685,150.592z"/>
</g>
<g>
</g>
<g>
</g>
<g>
</g>
<g>
</g>
<g>
</g>
<g>
</g>
<g>
</g>
<g>
</g>
<g>
</g>
<g>
</g>
<g>
</g>
<g>
</g>
<g>
</g>
<g>
</g>
<g>
</g>
</svg>
